<?xml version="1.0"?>
<svg xmlns="http://www.w3.org/2000/svg" xmlns:xlink="http://www.w3.org/1999/xlink" version="1.1" id="Capa_1" x="0px" y="0px" viewBox="0 0 436.907 436.907" style="enable-background:new 0 0 436.907 436.907;" xml:space="preserve" width="512" height="512" class=""><g><rect x="150.187" y="34.133" style="fill:#1E1429" width="122.88" height="27.307" data-original="#595959" class="" data-old_color="#595959"/><path d="M273.067,68.267h-122.88c-3.768,0-6.827-3.058-6.827-6.827V34.133c0-3.768,3.058-6.827,6.827-6.827h122.88  c3.768,0,6.827,3.058,6.827,6.827V61.44C279.893,65.208,276.835,68.267,273.067,68.267z M157.013,54.613H266.24V40.96H157.013  V54.613z" data-original="#000000" class="active-path" style="fill:#A25F41" data-old_color="#000000"/><rect x="150.187" y="61.44" style="fill:#B27B52" width="122.88" height="54.613" data-original="#DDDDDD" class="" data-old_color="#DDDDDD"/><path d="M273.067,122.88h-122.88c-3.768,0-6.827-3.058-6.827-6.827V61.44c0-3.768,3.058-6.827,6.827-6.827h122.88  c3.768,0,6.827,3.058,6.827,6.827v54.613C279.893,119.822,276.835,122.88,273.067,122.88z M157.013,109.227H266.24v-40.96H157.013  V109.227z" data-original="#000000" class="active-path" style="fill:#A25F41" data-old_color="#000000"/><rect x="150.187" y="6.827" style="fill:#B27B52" width="122.88" height="27.307" data-original="#DDDDDD" class="" data-old_color="#DDDDDD"/><path d="M273.067,40.96h-122.88c-3.768,0-6.827-3.058-6.827-6.827V6.827c0-3.768,3.058-6.827,6.827-6.827h122.88  c3.768,0,6.827,3.058,6.827,6.827v27.307C279.893,37.902,276.835,40.96,273.067,40.96z M157.013,27.307H266.24V13.653H157.013  V27.307z" data-original="#000000" class="active-path" style="fill:#A25F41" data-old_color="#000000"/><rect x="150.187" y="320.853" style="fill:#B27B52" width="122.88" height="109.227" data-original="#DDDDDD" class="" data-old_color="#DDDDDD"/><path d="M273.067,436.907h-122.88c-3.768,0-6.827-3.058-6.827-6.827V320.853c0-3.768,3.058-6.827,6.827-6.827h122.88  c3.768,0,6.827,3.058,6.827,6.827V430.08C279.893,433.848,276.835,436.907,273.067,436.907z M157.013,423.253H266.24V327.68H157.013  V423.253z" data-original="#000000" class="active-path" style="fill:#A25F41" data-old_color="#000000"/><circle style="fill:#9E9FA2" cx="211.627" cy="218.453" r="116.053" data-original="#ED5481" class="" data-old_color="#ED5481"/><path d="M211.627,341.333c-67.758,0-122.88-55.122-122.88-122.88s55.122-122.88,122.88-122.88s122.88,55.122,122.88,122.88  S279.385,341.333,211.627,341.333z M211.627,109.227c-60.228,0-109.227,48.998-109.227,109.227S151.398,327.68,211.627,327.68  s109.227-48.998,109.227-109.227S271.855,109.227,211.627,109.227z" data-original="#000000" class="active-path" style="fill:#A25F41" data-old_color="#000000"/><rect x="327.68" y="197.973" style="fill:#9E9FA2" width="13.653" height="40.96" data-original="#ED5481" class="" data-old_color="#ED5481"/><path d="M341.333,245.76H327.68c-3.768,0-6.827-3.058-6.827-6.827v-40.96c0-3.768,3.058-6.827,6.827-6.827h13.653  c3.768,0,6.827,3.058,6.827,6.827v40.96C348.16,242.702,345.102,245.76,341.333,245.76z" data-original="#000000" class="active-path" style="fill:#A25F41" data-old_color="#000000"/><polyline style="fill:#9E9FA2" points="211.627,122.88 211.627,218.453 266.24,245.76 " data-original="#ED5481" class="" data-old_color="#ED5481"/><path d="M266.237,252.587c-1.027,0-2.069-0.232-3.048-0.72l-54.613-27.307c-2.314-1.157-3.775-3.523-3.775-6.106V122.88  c0-3.768,3.058-6.827,6.827-6.827c3.768,0,6.827,3.058,6.827,6.827v91.354l50.842,25.419c3.372,1.686,4.738,5.786,3.055,9.161  C271.148,251.204,268.739,252.587,266.237,252.587z" data-original="#000000" class="active-path" style="fill:#A25F41" data-old_color="#000000"/></g> </svg>
